<?xml version="1.0" encoding="UTF-8" standalone="no"?>
<!-- Created with Inkscape (http://www.inkscape.org/) -->

<svg
   xmlns:dc="http://purl.org/dc/elements/1.1/"
   xmlns:cc="http://creativecommons.org/ns#"
   xmlns:rdf="http://www.w3.org/1999/02/22-rdf-syntax-ns#"
   xmlns:svg="http://www.w3.org/2000/svg"
   xmlns="http://www.w3.org/2000/svg"
   xmlns:sodipodi="http://sodipodi.sourceforge.net/DTD/sodipodi-0.dtd"
   xmlns:inkscape="http://www.inkscape.org/namespaces/inkscape"
   width="1040.058"
   height="1238.1398"
   id="svg2"
   version="1.1"
   inkscape:version="0.46+devel 22040"
   sodipodi:docname="animation-drawing.svg">
  <defs
     id="defs4">
    <inkscape:perspective
       sodipodi:type="inkscape:persp3d"
       inkscape:vp_x="0 : 526.18109 : 1"
       inkscape:vp_y="0 : 1000 : 0"
       inkscape:vp_z="744.09448 : 526.18109 : 1"
       inkscape:persp3d-origin="372.04724 : 350.78739 : 1"
       id="perspective10" />
    <inkscape:perspective
       id="perspective2824"
       inkscape:persp3d-origin="0.5 : 0.33333333 : 1"
       inkscape:vp_z="1 : 0.5 : 1"
       inkscape:vp_y="0 : 1000 : 0"
       inkscape:vp_x="0 : 0.5 : 1"
       sodipodi:type="inkscape:persp3d" />
  </defs>
  <sodipodi:namedview
     id="base"
     pagecolor="#ffffff"
     bordercolor="#666666"
     borderopacity="1.0"
     inkscape:pageopacity="0.0"
     inkscape:pageshadow="2"
     inkscape:zoom="0.35"
     inkscape:cx="275.2779"
     inkscape:cy="623.17752"
     inkscape:document-units="px"
     inkscape:current-layer="layer1"
     showgrid="false"
     inkscape:window-width="1280"
     inkscape:window-height="751"
     inkscape:window-x="-4"
     inkscape:window-y="-4"
     inkscape:window-maximized="1" />
  <metadata
     id="metadata7">
    <rdf:RDF>
      <cc:Work
         rdf:about="">
        <dc:format>image/svg+xml</dc:format>
        <dc:type
           rdf:resource="http://purl.org/dc/dcmitype/StillImage" />
        <dc:title></dc:title>
        <dc:subject>
          <rdf:Bag>
            <rdf:li>animation anime boy person people human kid outline</rdf:li>
          </rdf:Bag>
        </dc:subject>
      </cc:Work>
    </rdf:RDF>
  </metadata>
  <g
     inkscape:label="Layer 1"
     inkscape:groupmode="layer"
     id="layer1"
     transform="translate(298.84933,82.60013)">
    <path
       style="fill:#000000"
       d="m -297.53044,1131.0424 c 4.0176,-35.3577 39.8601,-138.66163 66.7027,-192.24813 27.599,-55.09654 39.0678,-88.28166 44.8044,-129.64217 3.0566,-22.03738 7.513,-35.3934 16.2212,-48.61581 25.3801,-38.53687 39.3273,-71.88083 44.3996,-106.14732 7.2097,-48.70523 18.6853,-85.02088 33.902197,-107.28668 7.33599,-10.73425 19.16273,-28.01065 26.28164,-38.39203 13.71234,-19.99645 44.29581,-42.62889 75.92692,-56.18756 10.5122,-4.50608 18.0216,-9.28428 16.68758,-10.6183 -1.33402,-1.33402 0.96879,-9.0788 5.11734,-17.21065 4.50527,-8.83102 6.69063,-19.24319 5.42666,-25.85523 -1.1639,-6.08852 -0.0794,-13.52431 2.41021,-16.52398 3.26836,-3.93817 3.32265,-8.90699 0.19527,-17.87806 -2.94976,-8.46175 -3.04865,-17.06873 -0.30992,-26.98725 l 4.02109,-14.56315 -11.18929,7.96748 c -6.15407,4.38207 -13.52942,10.7872 -16.38965,14.23354 -2.86023,3.44633 -7.9612799,6.26609 -11.3356999,6.26609 -3.79775,0 0.85677,-7.47505 12.2166199,-19.61972 10.09358,-10.79082 21.48466,-25.67767 25.31352,-33.08188 7.10119,-13.73215 7.08807,-14.25342 -1.78055,-70.86359 l -3.1734,-20.25659 -0.57042,19.24376 c -0.31357,10.58407 -2.08039,19.24376 -3.92593,19.24376 -12.52133,0 -21.47012,-128.49793 -13.05152,-187.40982 6.8118,-47.667708 11.89746,-63.158999 28.17687,-85.82906 11.36885,-15.831816 12.70469,-19.38135 6.37155,-16.930407 -4.40719,1.705606 -16.67279,4.137128 -27.25686,5.403383 -22.4979399,2.691598 -26.3164299,-3.980925 -6.07698,-10.619018 16.90777,-5.545374 126.239183,-29.099738 144.834603,-31.203168 13.11306,-1.4833 12.80832,-1.15255 -4.05131,4.397134 -10.02702,3.300591 -32.59119,8.945025 -50.14259,12.543186 -34.522293,7.077296 -40.183733,11.247363 -62.875243,46.31211 -22.81714,35.258869 -34.75807,134.79744 -24.5665,204.78435 5.61436,38.55483 5.70572,38.50642 13.74466,-7.28261 4.43834,-25.2804 8.4671,-17.08498 6.966,14.17049 -0.91637,19.08057 1.13644,39.65038 5.85541,58.67277 l 7.26644,29.29158 -9.39614,16.71816 c -9.35514,16.64522 -9.35858,16.70624 -0.79122,13.98707 9.99104,-3.17103 10.55794,-0.0267 2.5279,14.0202 -3.18441,5.57057 -5.58129,16.50912 -5.32639,24.30791 0.43686,13.36623 0.55483,13.48246 2.05629,2.02566 3.18114,-24.27355 5.84719,-24.7935 15.5791,-3.03849 7.41091,16.56665 11.58085,21.31974 18.85941,21.49706 6.32597,0.15395 15.88862,8.09401 29.601363,24.57805 11.14112,13.39269 23.36172,26.07039 27.15683,28.17266 6.3352,3.5093 6.44856,2.74072 1.38405,-9.3856 -12.43917,-29.784 -25.3657,-100.3112 -18.38549,-100.3112 1.69572,0 7.18177,10.0984 12.19123,22.44086 9.22699,22.73389 55.76253,84.30488 75.99955,100.55472 26.62486,21.37913 26.62141,21.38212 10.97486,-9.64664 -12.2684,-24.3295 -38.42298,-92.68916 -38.42298,-100.42536 0,-0.96895 2.73464,0.50779 6.07698,3.28169 3.8321,3.18037 6.07697,3.45193 6.07697,0.73515 0,-2.36953 -1.68283,-5.3483 -3.7396,-6.61949 -2.05682,-1.27118 -4.95375,-7.83902 -6.43767,-14.59522 -1.48392,-6.75621 -7.09345,-16.67945 -12.46562,-22.05164 -5.37221,-5.3722 -9.76765,-13.98832 -9.76765,-19.14695 0,-5.15863 -8.18475,-20.28201 -18.18834,-33.60752 -21.08618,-28.08835 -22.84105,-40.94366 -9.37321,-68.66448 10.26709,-21.1328 18.52501,-25.19651 34.45844,-16.957 14.08023,7.28116 22.10682,16.26631 33.12896,37.08537 6.78879,12.82289 8.06613,13.87989 6.11988,5.06415 -4.7095,-21.33213 4.61453,-10.55844 22.71549,26.24721 14.96553,30.43024 72.06548,115.32945 75.01983,111.54337 0.45431,-0.58221 -0.58663,-11.99717 -2.31326,-25.36651 -4.64055,-35.93259 -4.40123,-79.07209 0.62333,-112.34888 4.31761,-28.59516 30.04802,-104.413068 35.42367,-104.380418 1.46787,0.0089 2.78285,23.253348 2.92217,51.654298 0.24794,50.51123 0.59089,52.43378 15.72215,88.09996 30.05097,70.83368 31.83578,74.17878 33.50497,62.79542 7.80174,-53.20477 28.42359,-115.97842 58.04634,-176.69506 8.82114,-18.080309 16.0384,-36.269535 16.0384,-40.420503 0,-4.150968 11.8501,15.723225 26.33356,44.164883 l 26.33356,51.71209 -0.0482,-31.54818 c -0.0283,-17.35151 -2.69392,-41.490421 -5.92776,-53.642037 -3.2338,-12.15162 -5.32793,-22.645582 -4.65363,-23.319916 3.47684,-3.476816 16.64221,17.658747 27.42519,44.028173 27.15193,66.39879 43.97418,128.70127 43.97418,162.86138 0,12.30954 1.58694,23.36176 3.52651,24.56048 3.71275,2.29461 27.4702,-46.88759 38.56222,-79.83076 3.58987,-10.66193 6.59554,-28.89286 6.6792,-40.51317 l 0.15193,-21.12784 14.20797,16.20527 c 7.81438,8.9129 17.56752,22.5861 21.6737,30.38488 11.58721,22.00752 24.5334,67.74347 25.06319,88.54291 0.26374,10.34936 1.63098,24.14093 3.03849,30.64793 l 2.55917,11.83093 10.75986,-19.93356 c 13.08365,-24.23823 27.72782,-91.1102 27.72782,-126.617 0,-21.73578 -2.09011,-29.67684 -12.68483,-48.19455 -7.14897,-12.49507 -16.07086,-37.463253 -20.44345,-57.211605 -4.26721,-19.27243 -11.70369,-43.244706 -16.52544,-53.271717 -11.29135,-23.480612 -39.00062,-53.716164 -46.56706,-50.812645 -3.38828,1.300198 -5.11115,0.126806 -4.20596,-2.864561 0.84328,-2.786796 10.01887,-9.317837 20.3902,-14.513419 14.22535,-7.126299 19.97948,-12.847948 23.42735,-23.295078 2.51372,-7.616708 6.15671,-13.848565 8.09547,-13.848565 1.93879,0 1.20745,6.836604 -1.62515,15.192447 -3.48644,10.284409 -9.41109,17.368277 -18.33942,21.927575 -19.3275,9.869715 -19.38596,10.293718 -3.69023,26.762604 7.92462,8.314941 19.03508,23.321994 24.68991,33.349006 9.52185,16.883827 23.1707,61.448626 23.1707,75.654455 0,3.370194 7.50575,20.998103 16.67947,39.173133 16.13721,31.9712 16.59627,33.96748 14.12063,61.40474 -4.73008,52.42331 -14.91391,93.23753 -30.40623,121.86063 -8.17435,15.10255 -16.83412,28.11644 -19.244,28.91973 -2.86425,0.95478 -5.12302,-12.97471 -6.52254,-40.2237 -2.40487,-46.82177 -14.85266,-89.30919 -34.16213,-116.60364 -12.27497,-17.35101 -17.83852,-20.65913 -14.72581,-8.75606 4.1176,15.74565 -37.08159,116.7591 -53.01421,129.98202 -5.75834,4.779 -6.42097,2.25432 -6.44127,-24.5411 -0.0122,-16.42746 -2.02934,-37.09638 -4.48205,-45.93093 -4.26231,-15.35258 -4.72931,-15.71085 -10.56195,-8.10264 -10.95824,14.29418 -21.7307,42.00542 -24.09744,61.98875 -2.56464,21.6544 7.8297,51.40678 23.9569,68.57343 l 8.70495,9.26597 -8.95921,9.01539 c -4.92753,4.95849 -20.32817,13.58626 -34.22358,19.17287 -23.958,9.63225 -25.36911,10.96003 -27.29004,25.67814 -1.45406,11.141 -4.8837,17.09417 -12.15396,21.09671 -5.57056,3.06681 -8.83612,5.64061 -7.2568,5.71953 4.30011,0.21512 -81.47847,85.22125 -85.99553,85.22125 -2.1408,0 -13.02738,-3.47105 -24.1924,-7.71342 -11.16503,-4.24238 -20.30006,-7.27224 -20.30006,-6.73301 0,0.53919 18.06252,16.82925 40.13887,36.2001 54.40191,47.73474 111.39369,89.62832 137.03711,100.73331 11.66018,5.04948 21.18438,10.0924 21.16494,11.20651 -0.0203,1.11411 -7.47245,5.45781 -16.56219,9.65267 -9.08974,4.19485 -28.17335,18.52177 -42.40802,31.8376 -20.54281,19.21682 -27.14006,28.44973 -31.98446,44.76261 -9.5035,32.00164 -7.88869,63.78913 4.73153,93.14 8.27004,19.23371 11.43796,34.78883 13.3828,65.71185 2.2439,35.67813 4.50802,44.86473 18.97135,76.97503 19.8662,44.10536 28.82577,81.12886 31.37295,129.64216 l 1.91445,36.4618 -5.92476,-38.4875 c -7.51362,-48.8087 -21.26371,-97.8835 -39.72933,-141.79607 -12.331,-29.324 -14.49083,-39.069 -14.54889,-65.6433 -0.0365,-17.16389 -1.72104,-35.39482 -3.74127,-40.51318 -2.02023,-5.11835 -7.70261,-19.25482 -12.62747,-31.41444 -7.46322,-18.42677 -8.50817,-26.52244 -6.275,-48.61581 4.15089,-41.06659 10.28127,-56.37199 30.75176,-76.77624 21.66122,-21.59114 48.46535,-40.88586 56.79838,-40.88586 3.18721,0 -6.28724,-7.06044 -21.05433,-15.68983 -35.06476,-20.49063 -89.46901,-62.44121 -135.47549,-104.46379 -20.27437,-18.5187 -38.04953,-32.48335 -39.50035,-31.03253 -5.68027,5.68027 -2.08784,18.85783 9.8851,36.2599 6.8876,10.01081 17.79626,29.8316 24.2415,44.04617 10.73214,23.66934 13.94071,27.08744 38.11852,40.60847 14.51997,8.12001 26.39997,15.42178 26.39997,16.22613 0,0.80435 -9.11547,13.50564 -20.25659,28.22509 -11.14112,14.71945 -20.2326,28.94496 -20.20331,31.61227 0.0758,6.89794 25.18943,99.44831 38.53208,142.00075 l 11.24678,35.86818 -7.0877,36.8375 c -5.98193,31.09018 -6.40667,42.56023 -2.72228,73.51739 6.19029,52.0128 11.09822,136.4276 8.04142,138.3099 -4.7116,2.9013 -7.43802,-16.1377 -7.59173,-53.0142 -0.0835,-20.0541 -1.78857,-43.5157 -3.78887,-52.1371 -4.76727,-20.547 -24.4689,-44.74564 -37.7287,-46.34028 -12.38691,-1.48971 -26.8068,12.19708 -30.1237,28.59208 -6.88404,34.0273 -17.44639,-17.0888 -17.44639,-84.43139 0,-27.31119 2.08639,-58.69541 4.63641,-69.74271 l 4.63641,-20.08603 -27.93148,-51.36965 C 288.31406,725.86005 237.48477,659.70616 173.77205,597.05605 c -51.57267,-50.71253 -59.72031,-55.60316 -59.95788,-35.9898 -0.0324,2.8168 -12.03468,29.72971 -26.667923,59.80645 l -26.60589,54.68493 22.73713,20.78042 c 12.5054,11.42922 27.121143,24.22891 32.479413,28.44374 27.12142,21.33371 74.97028,114.63378 74.97028,146.18386 0,22.54024 -11.27749,58.45817 -29.04467,92.50483 -16.55554,31.7249 -16.72521,32.46074 -8.76863,38.03372 28.36648,19.8687 91.80914,78.583 98.57836,91.2313 6.83486,12.7711 -0.98163,9.1895 -12.14925,-5.5669 -12.01495,-15.876 -83.3681,-79.5019 -89.15723,-79.5019 -7.2568,0 -4.11796,5.8492 11.276,21.0128 9.42385,9.2829 19.19603,25.3833 25.81908,42.5389 11.64167,30.155 18.7713,70.1417 12.50626,70.1417 -2.11989,0 -4.99471,-10.9105 -6.38848,-24.2454 -3.05603,-29.2384 -21.35819,-70.7804 -38.07623,-86.4248 l -12.19617,-11.4129 -2.57295,10.2513 c -1.41508,5.6382 -13.55741,22.6242 -26.98295,37.7465 -22.501703,25.3457 -36.280033,53.0824 -36.280033,73.0341 0,3.0694 -1.82978,4.4499 -4.06619,3.0677 -9.9978,-6.179 10.58354,-53.8943 34.082883,-79.017 21.06653,-22.5218 28.72753,-36.6397 32.20052,-59.3399 1.41594,-9.25454 11.18188,-34.63042 21.7021,-56.39081 17.88697,-36.99789 19.1362,-41.68794 19.25851,-72.30245 0.12073,-30.25083 -1.14199,-35.35448 -16.6213,-67.17434 -21.58093,-44.36241 -37.19835,-65.25478 -73.532273,-98.36814 -34.58119,-31.51605 -60.62444,-42.27157 -91.23918986,-37.68062 -17.09012014,2.56282 -18.37196014,3.53976 -15.34015014,11.69137 5.09202,13.69099 -1.3121,54.20137 -15.89733,100.56092 -15.13354,48.10239 -31.85048,83.30207 -60.14813,126.64975 -17.952277,27.50018 -27.734177,49.57577 -23.738077,53.57191 0.8355,0.83542 11.2736,3.36891 23.195877,5.62991 11.92227,2.261 31.32379,8.52746 43.1145,13.9254 24.39513,11.16847 58.1558501,33.4466 58.1558501,38.3762 0,6.0608 -43.7186601,8.6609 -62.2574101,3.7025 -15.44282,-4.1303 -19.43273,-3.8363 -28.49155,2.0992 -10.98827,7.1998 -14.78188,3.1303 -4.80255,-5.1518 4.07254,-3.3799 17.55751,-3.9422 46.59016,-1.9426 22.4723,1.5478 40.85871014,1.832 40.85871014,0.6316 0,-4.3417 -41.45259014,-28.65101 -64.01263014,-37.53928 -12.69988,-5.00354 -31.00939,-10.27256 -40.687757,-11.70895 l -17.5972,-2.6116 1.1641,25.42919 c 0.6403,13.98604 2.6038,28.44344 4.3634,32.12754 3.4213,7.1631 60.933657,55.2741 111.9898971,93.6833 17.1125699,12.8736 31.8091699,25.4426 32.6590899,27.931 1.99884,5.8523 -48.72677,-29.7822 -72.73723,-51.0975 -10.18862,-9.045 -32.17714,-27.6091 -48.86341,-41.2538 l -30.338647,-24.8084 -48.7774,30.8854 c -26.8276,16.987 -64.0895,42.596 -82.8044,56.9089 -18.7149,14.313 -36.4834,27.9009 -39.4855,30.1954 -4.4987,3.4383 -4.9766,-0.07 -2.718,-19.9465 z m 44.6383,-18.8142 c 15.5976,-12.3055 50.6569,-36.4164 77.9097,-53.5798 l 49.5504,-31.2061 -0.9346,-30.07225 c -0.8892,-28.61207 -1.4756,-30.29636 -12.0757,-34.68722 -6.1277,-2.53824 -11.1412,-6.21691 -11.1412,-8.17479 0,-5.05649 2.9675,-4.45674 14.1267,2.855 9.5806,6.27748 9.9274,6.0865 16.1986,-8.92258 3.5246,-8.43557 15.217,-29.09742 25.983177,-45.91517 28.404,-44.36978 38.2479,-65.51499 54.6954,-117.48882 16.90931,-53.43303 23.20761,-99.97611 14.00678,-103.50679 -7.52399,-2.88726 -62.05663,7.73287 -81.039957,15.78235 -16.7236,7.09135 -35.6955,27.79265 -55.3465,60.39186 -10.1288,16.80264 -14.7302,30.99343 -18.842,58.10943 -5.7751,38.08425 -20.3601,81.40617 -36.9198,109.6633 -34.7203,59.24558 -90.6183,229.10728 -70.2642,213.51728 3.1537,-2.4156 18.4957,-14.4601 34.0932,-26.7657 z M 423.55797,982.85993 c -3.5857,-16.43733 -8.11985,-42.6477 -10.07599,-58.24527 -1.95609,-15.59757 -9.03982,-45.27178 -15.74159,-65.94269 -6.70177,-20.67088 -14.33839,-48.52875 -16.97028,-61.90637 -2.63186,-13.37761 -5.67205,-23.4361 -6.7559,-22.35221 -1.08389,1.08389 -5.52344,18.0032 -9.86569,37.59846 -8.23855,37.17833 -15.2208,179.9082 -9.51521,194.50865 2.46649,6.3116 3.55974,5.8301 8.6633,-3.8161 12.56334,-23.74589 31.99621,-25.21563 50.79595,-3.84177 7.5002,8.52717 14.16502,15.13927 14.81072,14.69357 0.64574,-0.4456 -1.75965,-14.25894 -5.34531,-30.69627 z m 10.17011,-84.56502 c 0.0429,-7.79121 -4.33471,-27.84524 -9.72819,-44.5645 -5.39348,-16.7193 -14.67654,-48.62963 -20.62902,-70.91187 -17.93146,-67.12366 -15.63416,-62.90911 -23.53188,-43.17081 -5.97622,14.93608 -6.1343,18.54653 -1.23152,28.12753 3.09367,6.04558 6.92322,18.80521 8.51012,28.35477 1.58686,9.54957 9.09484,36.51814 16.6843,59.93017 7.58949,23.41204 13.81912,47.50292 13.84367,53.53525 0.0243,6.03233 1.26041,18.26026 2.74643,27.17316 l 2.70182,16.20527 5.27806,-20.25659 c 2.90293,-11.14112 5.31322,-26.63121 5.35621,-34.42238 z M 364.75707,774.21244 c 0.28764,-20.58482 11.22004,-45.89985 35.27486,-81.68125 12.43694,-18.49981 21.93355,-34.16253 21.10364,-34.80604 -6.05425,-4.69427 -54.23871,-32.01477 -72.40701,-41.05468 C 309.04898,596.92738 251.37795,549.3184 184.3788,480.99536 148.32548,444.22965 112.96112,407.33746 105.79135,399.01269 85.194247,375.09752 51.052457,369.93695 43.507647,389.5984 c -1.27892,3.3329 -0.55216,7.15572 1.61514,8.49513 2.16725,1.33944 2.71746,4.41415 1.22272,6.83271 -1.65763,2.68213 -0.82379,3.22683 2.13776,1.39649 6.81521,-4.21204 23.40434,7.64066 30.85241,22.04366 8.21749,15.89089 4.47419,15.28858 -15.14598,-2.43707 l -16.10828,-14.5529 -7.59577,12.49021 -7.59574,12.49018 25.70144,26.08384 c 19.02179,19.30477 29.56611,26.80882 40.57168,28.87346 8.178593,1.53435 18.828453,5.99489 23.666333,9.91236 7.8724,6.37466 8.3251,8.65734 4.31097,21.73661 l -4.48517,14.61396 52.44633,51.72268 c 74.57722,73.54824 127.96795,145.7255 173.11733,234.03199 l 6.21408,12.15396 5.0737,-24.30791 c 2.79051,-13.36935 5.15324,-30.00373 5.25047,-36.96532 z M -94.890713,687.60382 c 11.14113,-4.02835 38.48752,-10.66429 60.76977,-14.74652 29.7753601,-5.45497 42.6714301,-9.73078 48.65612,-16.13226 16.49542,-17.6443 75.13144,-133.74069 74.77435,-148.0495 -0.0741,-2.96888 -10.81965,-17.22203 -23.87899,-31.67364 l -23.74424,-26.27572 -19.67268,5.1472 c -10.82001,2.83094 -30.9677799,12.93882 -44.77285,22.46193 -22.98272,15.85406 -30.06179,24.05077 -64.53662,74.72522 -12.53062,18.4187 -24.884387,57.62144 -30.103787,95.53003 -2.4139,17.53179 -6.119,36.42661 -8.2336,41.98842 -3.3413,8.78812 -2.9064,9.73504 3.3206,7.23075 3.9409,-1.58491 16.2808,-6.17761 27.421927,-10.20591 z m 173.59288,-63.79951 c 23.652733,-47.396 43.152613,-97.82968 43.152613,-111.60805 0,-5.16608 -15.89364,-14.99563 -24.246733,-14.99563 -1.9849,0 -3.34971,3.44091 -3.03294,7.64642 0.69205,9.18689 -19.61417,61.63942 -31.54469,81.48257 -4.689,7.79879 -16.21986,28.33111 -25.62418,45.62736 l -17.09879,31.44771 9.24766,3.41959 c 5.08623,1.88079 11.9823,4.449 15.32464,5.70714 3.34233,1.25813 6.5197,2.43143 7.0608,2.60734 0.54113,0.17583 12.58387,-22.92458 26.76162,-51.33445 z m 281.952583,-27.7858 -8.53402,-19.81718 -9.77859,12.15395 c -11.7124,14.55752 -13.1588,9.99262 -1.86105,-5.8736 l 7.95784,-11.17572 -9.9835,-13.53185 -9.98346,-13.53185 0,27.043 0,27.04303 19.24376,9.81407 c 10.58407,5.39774 19.74535,9.33691 20.3584,8.75369 0.61304,-0.58323 -2.72565,-9.97812 -7.41938,-20.87754 z m -38.30983,-36.87898 c 1.61016,-17.18278 4.50308,-35.38527 6.42867,-40.44998 3.19204,-8.39563 1.19818,-10.31931 -22.58342,-21.78896 -17.96994,-8.66678 -33.68524,-20.70551 -50.51717,-38.69892 -25.427,-27.18154 -30.05782,-29.02096 -16.31486,-6.48044 9.64655,15.82177 10.04471,18.73811 2.1444,15.70651 -24.38241,-9.35644 -84.84569,-72.86923 -104.71614,-109.99757 -9.15319,-17.10292 -8.6471,-4.46269 1.25919,31.449 4.44846,16.12643 13.56393,37.12222 20.25658,46.65733 6.69262,9.5351 12.20115,18.65056 12.24114,20.25658 0.23295,9.3487 134.77433,132.81306 146.31155,134.26529 1.40937,0.17745 3.87991,-13.73607 5.49006,-30.91884 z m 112.61618,-71.91272 37.53168,-38.33304 -34.53573,-11.52985 c -27.53446,-9.19244 -34.5357,-13.12493 -34.5357,-19.39819 0,-14.45543 23.85428,-12.57606 50.70061,3.99443 29.91441,18.46421 36.40271,18.62805 36.40271,0.91901 0,-16.7787 7.52314,-23.85627 37.10561,-34.9079 30.31472,-11.32518 35.65103,-17.78075 24.50679,-29.64706 -4.64711,-4.94816 -12.45756,-19.4729 -17.35657,-32.27717 -8.19752,-21.4254 -8.49801,-25.2093 -3.77077,-47.48516 2.90139,-13.67188 11.07691,-33.22455 18.78762,-44.93268 7.50807,-11.40042 13.64427,-23.75933 13.63601,-27.46424 -0.0162,-7.81494 -34.94318,-109.967549 -38.85672,-113.650035 -1.44474,-1.359452 -1.52994,11.201465 -0.1896,27.913155 1.34058,16.71168 2.88021,44.05808 3.42146,60.76976 0.8686,26.8209 0.1653,30.24525 -5.99607,29.19446 -3.83903,-0.65473 -6.98006,1.0772 -6.98006,3.84875 0,3.91936 -1.08036,3.95883 -4.86158,0.17761 -5.95442,-5.95444 -24.52157,-6.21977 -44.62068,-0.63766 -17.66464,4.906 -21.00669,9.04019 -17.76126,21.97105 3.08435,12.28909 36.43889,29.49379 44.38854,22.89618 7.80766,-6.47979 6.97775,7.15154 -1.00286,16.47223 -8.09502,9.45431 -12.3792,9.40136 -9.8887,-0.12223 1.42708,-5.45715 -1.43939,-8.88929 -10.58962,-12.67944 -14.88753,-6.16672 -32.63867,-26.03529 -32.63867,-36.53222 0,-10.20974 32.40601,-22.30648 59.75694,-22.30648 11.69818,0 21.24969,-1.82309 21.22558,-4.05132 -0.0652,-6.0259 -10.48173,-38.89046 -16.37198,-51.6543 -5.87097,-12.72211 -16.74175,-14.13339 -41.31546,-5.36372 -8.35584,2.98196 -15.19244,3.89918 -15.19244,2.03826 0,-3.9455 26.23184,-11.8115 39.49917,-11.84439 l 9.11429,-0.0226 -11.13995,-20.19822 c -6.12697,-11.10902 -12.61098,-20.224486 -14.40891,-20.256588 -3.25167,-0.05806 -27.13391,49.486038 -33.17114,68.814028 -1.74,5.57057 -7.27163,19.24376 -12.29251,30.38489 -5.02083,11.14112 -13.25133,38.26098 -18.28991,60.26635 -8.95147,39.09419 -8.99701,40.46616 -1.98916,59.9543 3.94457,10.96951 6.18568,20.93082 4.98021,22.13629 -2.43602,2.43606 -39.26258,-58.74823 -39.30208,-65.2972 -0.0137,-2.27481 -2.95203,-9.6053 -6.52959,-16.28998 -13.66696,-25.53683 -25.8679,-67.38348 -26.25983,-90.06573 -0.22209,-12.85414 -1.70852,-27.9289 -3.30312,-33.49946 -2.62578,-9.17284 -3.57764,-8.11039 -10.09037,11.26258 -15.80626,47.0177 -21.01755,108.57846 -13.27925,156.86711 3.21371,20.05402 7.1695,39.65227 8.79063,43.55167 11.37035,27.34927 -41.06962,-30.48613 -66.79172,-73.66377 -7.79879,-13.0912 -18.37277,-30.81395 -23.49772,-39.38388 l -9.31815,-15.58169 2.32387,17.51625 c 1.51941,11.45255 0.88833,16.62903 -1.82297,14.95334 -2.28081,-1.40959 -4.14689,-5.24182 -4.14689,-8.51605 0,-9.34733 -27.12677,-64.12123 -35.51612,-71.71346 -4.15491,-3.76015 -13.06282,-7.93833 -19.79538,-9.28484 -11.61092,-2.32218 -12.70842,-1.36161 -21.32241,18.66225 -10.98114,25.52633 -9.4576,33.27266 11.84443,60.22175 8.95305,11.32645 17.73509,27.454 19.51568,35.83901 2.61874,12.33208 4.98353,15.17839 12.37475,14.89445 7.70362,-0.29595 8.75008,1.1919 6.66932,9.48227 -1.78776,7.12303 2.72391,19.50272 16.36911,44.91551 10.36039,19.29522 22.59768,39.17702 27.19398,44.18173 4.5963,5.00472 6.97742,10.47399 5.29135,12.15395 -1.68608,1.67996 -6.4766,-1.50328 -10.64561,-7.07384 -19.50049,-26.05625 -25.20641,-32.68765 -26.7756,-31.11841 -0.93152,0.93152 2.30248,12.41619 7.18667,25.52152 6.56933,17.62679 17.41325,33.19167 41.66849,59.80911 27.53697,30.21874 37.97871,38.54469 65.19862,51.98728 41.72687,20.60695 67.05907,31.04728 76.0047,31.32439 3.92281,0.12154 24.0216,-17.02895 44.66404,-38.11213 z M 178.79281,262.6345 c -2.40916,-4.50159 -4.1398,-9.62587 -3.84584,-11.38731 2.06188,-12.35502 -2.53953,-22.63532 -16.63033,-37.15493 -17.36614,-17.89462 -18.50253,-21.03197 -12.01143,-33.16075 5.4707,-10.22207 21.91536,-10.08633 32.26801,0.26633 8.72237,8.72236 10.59311,16.20527 4.05132,16.20527 -2.22822,0 -4.05132,-2.67049 -4.05132,-5.93443 0,-3.26394 -3.51411,-7.81513 -7.80915,-10.11377 -19.71108,-10.54905 -29.20166,14.24399 -10.21471,26.68472 13.08012,8.57043 22.07518,25.79143 22.07518,42.26287 0,10.0031 1.39738,12.25237 6.41551,10.32673 3.94561,-1.51408 5.79776,-0.60866 4.81094,2.35184 -2.77937,8.33812 -10.50544,8.1603 -15.05818,-0.34655 z m 315.78318,-26.50477 c 0,-3.47384 1.82309,-6.31607 4.05132,-6.31607 2.22822,0 4.05131,1.71549 4.05131,3.81222 0,2.09672 -1.82309,4.93895 -4.05131,6.31607 -2.22823,1.37712 -4.05132,-0.33837 -4.05132,-3.81222 z m -28.35922,202.49756 c 0,-3.42948 -34.3196,-21.86999 -46.10554,-24.77329 -8.78248,-2.16344 -11.22611,-1.54497 -9.87776,2.50003 1.3783,4.13498 25.69925,14.67019 54.97047,23.81183 0.55705,0.1738 1.01283,-0.51837 1.01283,-1.53857 z m -401.224013,-70.056 c -0.079,-1.67117 -2.74899,-7.59622 -5.9334,-13.16678 l -5.78986,-10.1283 -0.14342,13.16679 c -0.0988,9.06672 1.74875,13.16678 5.9334,13.16678 3.34234,0 6.01236,-1.36732 5.9334,-3.03849 z M -163.76314,1131.0536 c 13.3694,-12.1486 25.4146,-21.6361 26.7671,-21.0834 7.6339,3.1199 44.820847,40.1531 42.574967,42.399 -1.47511,1.4751 -11.665367,-6.1662 -22.644967,-16.9807 l -19.9629,-19.6628 -22.1159,18.8942 c -30.6888,26.2183 -34.3146,23.4185 -4.6183,-3.5663 z m 698.8523,-1207.223426 -10.12829,-6.430304 12.15395,3.241468 c 15.11802,4.031993 62.02806,4.211369 107.35992,0.410527 27.01977,-2.265465 32.69117,-1.874425 26.33356,1.815737 -4.7923,2.781609 -32.10256,5.252503 -66.84674,6.047957 -48.34267,1.106786 -60.53746,0.20635 -68.8724,-5.085385 z"
       id="path2832" />
  </g>
</svg>
